<?xml version="1.0" encoding="UTF-8" standalone="no"?>
<!-- Created with Inkscape (http://www.inkscape.org/) -->

<svg
   width="150mm"
   height="150mm"
   viewBox="0 0 150 150"
   version="1.1"
   id="svg1"
   inkscape:version="1.3.2 (091e20e, 2023-11-25, custom)"
   sodipodi:docname="tile.svg"
   xml:space="preserve"
   xmlns:inkscape="http://www.inkscape.org/namespaces/inkscape"
   xmlns:sodipodi="http://sodipodi.sourceforge.net/DTD/sodipodi-0.dtd"
   xmlns="http://www.w3.org/2000/svg"
   xmlns:svg="http://www.w3.org/2000/svg"><sodipodi:namedview
     id="namedview1"
     pagecolor="#505050"
     bordercolor="#ffffff"
     borderopacity="1"
     inkscape:showpageshadow="0"
     inkscape:pageopacity="0"
     inkscape:pagecheckerboard="1"
     inkscape:deskcolor="#505050"
     inkscape:document-units="mm"
     inkscape:zoom="1.5683628"
     inkscape:cx="322.94823"
     inkscape:cy="204.67203"
     inkscape:window-width="2560"
     inkscape:window-height="1476"
     inkscape:window-x="-12"
     inkscape:window-y="-12"
     inkscape:window-maximized="1"
     inkscape:current-layer="layer1" /><defs
     id="defs1" /><g
     inkscape:label="Layer 1"
     inkscape:groupmode="layer"
     id="layer1"
     transform="translate(-25,-25)"><rect
       style="fill:#4c4334;stroke:#4c4334;stroke-width:5.19839;stroke-dasharray:none;stroke-opacity:1;fill-opacity:1"
       id="rect2"
       width="144.80162"
       height="144.80162"
       x="27.599194"
       y="27.599192"
       ry="2.738438e-14" /><rect
       style="fill:none;stroke:#4c4334;stroke-width:5.19839;stroke-dasharray:none;stroke-opacity:1"
       id="rect2-0"
       width="144.80162"
       height="144.80162"
       x="27.599194"
       y="27.599192"
       ry="30.226397"
       inkscape:label="rounded" /><g
       inkscape:groupmode="layer"
       id="layer2"
       inkscape:label="corners"><path
         style="fill:#4c4334;stroke:#4c4334;stroke-width:4.50857;stroke-dasharray:none;stroke-opacity:1;fill-opacity:1"
         d="m 553.79163,66.330699 c -8.8965,-18.264419 -24.19946,-35.257633 -42.52021,-47.21667 -2.23174,-1.456788 -6.89811,-4.115873 -10.36971,-5.909076 l -6.31199,-3.2603701 31.22182,-0.012868 31.22182,-0.012869 V 41.253381 c 0,17.233995 -0.0507,31.31996 -0.11271,31.302151 -0.062,-0.01781 -1.47005,-2.81899 -3.12902,-6.224833 z"
         id="path7"
         transform="matrix(0.26458333,0,0,0.26458333,25,25)" /><path
         style="fill:#4c4334;stroke:#4c4334;stroke-width:4.50857;stroke-dasharray:none;stroke-opacity:1;fill-opacity:1"
         d="m 9.6934175,41.314374 c 0,-24.543328 0.1202179,-31.244324 0.5635705,-31.4136898 0.309964,-0.1184094 14.461227,-0.1627632 31.44725,-0.098564 L 72.587917,9.9188458 68.592101,11.838596 C 44.419315,23.452168 23.651621,44.15789 11.99079,68.271001 10.989342,70.341871 10.062749,72.143445 9.931696,72.274495 9.8006428,72.40555 9.6934175,58.473494 9.6934175,41.314374 Z"
         id="path8"
         transform="matrix(0.26458333,0,0,0.26458333,25,25)" /><path
         style="fill:#4c4334;stroke:#4c4334;stroke-width:4.50857;stroke-dasharray:none;stroke-opacity:1;fill-opacity:1"
         d="m 9.7035629,525.58611 0.010145,-31.44725 3.5364371,6.83143 c 12.178352,23.52524 30.172852,41.36524 53.688178,53.22722 l 5.621821,2.83585 H 41.126781 9.6934175 Z"
         id="path9"
         transform="matrix(0.26458333,0,0,0.26458333,25,25)" /><path
         style="fill:#4c4334;stroke:#4c4334;stroke-width:4.50857;stroke-dasharray:none;stroke-opacity:1;fill-opacity:1"
         d="m 500.97827,553.66582 c 22.62478,-11.55274 41.41085,-30.37605 52.81786,-52.9226 l 3.23723,-6.39855 v 31.34435 31.34434 H 525.70833 494.3833 Z"
         id="path10"
         transform="matrix(0.26458333,0,0,0.26458333,25,25)" /></g><path
       style="fill:#c1b095;stroke:none;stroke-width:25.5043;stroke-dasharray:none;stroke-opacity:1;fill-opacity:1"
       d="M 106.54057,545.63165 C 62.932073,538.30498 27.814188,502.48589 21.055644,458.43983 20.116064,452.31651 19.803613,395.65236 20.060666,277.9969 20.409989,118.10926 20.588762,105.96702 22.697451,98.907593 28.346594,79.995494 35.374917,66.86113 46.356782,54.693594 58.989157,40.697349 72.678234,31.729999 91.37937,25.200494 l 11.91305,-4.159445 h 179.80534 179.80533 l 9.50919,2.98609 c 35.86105,11.261142 62.33534,38.936193 71.44669,74.687216 2.51591,9.871905 2.57052,13.799515 2.56177,184.268585 -0.009,168.136 -0.095,174.54081 -2.48959,184.52829 -8.70445,36.30545 -35.80151,64.53235 -72.9577,75.99976 l -9.34558,2.88431 -174.06686,0.20231 c -100.56876,0.11689 -177.00295,-0.29099 -181.02044,-0.96596 z"
       id="path11"
       transform="matrix(0.26458333,0,0,0.26458333,25,25)"
       inkscape:label="fill" /></g></svg>
