<?xml version="1.0" encoding="UTF-8" standalone="no"?>
<!-- Created with Inkscape (http://www.inkscape.org/) -->

<svg
   width="150mm"
   height="150mm"
   viewBox="0 0 150 150"
   version="1.1"
   id="svg1"
   inkscape:version="1.3.2 (091e20e, 2023-11-25, custom)"
   sodipodi:docname="goal.svg"
   xml:space="preserve"
   xmlns:inkscape="http://www.inkscape.org/namespaces/inkscape"
   xmlns:sodipodi="http://sodipodi.sourceforge.net/DTD/sodipodi-0.dtd"
   xmlns="http://www.w3.org/2000/svg"
   xmlns:svg="http://www.w3.org/2000/svg"><sodipodi:namedview
     id="namedview1"
     pagecolor="#505050"
     bordercolor="#ffffff"
     borderopacity="1"
     inkscape:showpageshadow="0"
     inkscape:pageopacity="0"
     inkscape:pagecheckerboard="1"
     inkscape:deskcolor="#505050"
     inkscape:document-units="mm"
     inkscape:zoom="1.5683628"
     inkscape:cx="141.23007"
     inkscape:cy="345.26449"
     inkscape:window-width="2560"
     inkscape:window-height="1476"
     inkscape:window-x="-12"
     inkscape:window-y="-12"
     inkscape:window-maximized="1"
     inkscape:current-layer="layer3" /><defs
     id="defs1" /><g
     inkscape:groupmode="layer"
     id="layer3"
     inkscape:label="Layer 1"><rect
       style="fill:#4c4334;fill-opacity:1;stroke:#4c4334;stroke-width:5.19839;stroke-dasharray:none;stroke-opacity:1"
       id="rect2-2"
       width="144.80162"
       height="144.80162"
       x="2.5991898"
       y="2.5991898"
       ry="2.738438e-14" /><rect
       style="fill:none;stroke:#4c4334;stroke-width:5.19839;stroke-dasharray:none;stroke-opacity:1"
       id="rect2-0-0"
       width="144.80162"
       height="144.80162"
       x="2.5991898"
       y="2.5991898"
       ry="30.226397"
       inkscape:label="rounded" /><path
       style="fill:#867355;fill-opacity:1;stroke:none;stroke-width:6.74801;stroke-dasharray:none;stroke-opacity:1"
       d="M 28.188855,144.36502 C 16.650773,142.4265 7.3591668,132.94937 5.5709687,121.29552 5.3223715,119.67539 5.2397022,104.683 5.3077141,73.553333 c 0.092425,-42.30361 0.1397254,-45.51624 0.6976494,-47.38405 1.494669,-5.00383 3.3542461,-8.47896 6.2598645,-11.69829 3.342316,-3.70317 6.964217,-6.0757798 11.912226,-7.8033798 l 3.151994,-1.10052 h 47.573496 47.573496 l 2.51597,0.79007 c 9.48824,2.97951 16.49289,10.3018698 18.90361,19.7609898 0.66566,2.61194 0.68011,3.65112 0.6778,48.7544 -0.002,44.485977 -0.0251,46.180587 -0.65871,48.823107 -2.30305,9.60581 -9.47248,17.07418 -19.30339,20.10827 l -2.47268,0.76314 -46.055194,0.0535 c -26.608818,0.0309 -46.83203,-0.077 -47.894991,-0.25558 z"
       id="path11-8"
       inkscape:label="fill" /></g></svg>
