<?xml version="1.0" encoding="UTF-8" standalone="no"?>
<!-- Created with Inkscape (http://www.inkscape.org/) -->

<svg
   width="150mm"
   height="150mm"
   viewBox="0 0 150 150"
   version="1.1"
   id="svg1"
   inkscape:version="1.3.2 (091e20e, 2023-11-25, custom)"
   sodipodi:docname="throne.svg"
   xml:space="preserve"
   xmlns:inkscape="http://www.inkscape.org/namespaces/inkscape"
   xmlns:sodipodi="http://sodipodi.sourceforge.net/DTD/sodipodi-0.dtd"
   xmlns="http://www.w3.org/2000/svg"
   xmlns:svg="http://www.w3.org/2000/svg"><sodipodi:namedview
     id="namedview1"
     pagecolor="#505050"
     bordercolor="#ffffff"
     borderopacity="1"
     inkscape:showpageshadow="0"
     inkscape:pageopacity="0"
     inkscape:pagecheckerboard="1"
     inkscape:deskcolor="#505050"
     inkscape:document-units="mm"
     inkscape:zoom="1.109"
     inkscape:cx="76.19477"
     inkscape:cy="262.84941"
     inkscape:window-width="2560"
     inkscape:window-height="1476"
     inkscape:window-x="-12"
     inkscape:window-y="-12"
     inkscape:window-maximized="1"
     inkscape:current-layer="layer1-2" /><defs
     id="defs1" /><g
     inkscape:label="Layer 1"
     inkscape:groupmode="layer"
     id="layer1"
     transform="translate(-25,-25)"><g
       inkscape:label="Layer 1"
       id="layer1-2"><rect
         style="fill:#4c4334;fill-opacity:1;stroke:#4c4334;stroke-width:5.19839;stroke-dasharray:none;stroke-opacity:1"
         id="rect2"
         width="144.80162"
         height="144.80162"
         x="27.599195"
         y="27.599195"
         ry="2.738438e-14" /><rect
         style="fill:none;stroke:#4c4334;stroke-width:5.19839;stroke-dasharray:none;stroke-opacity:1"
         id="rect2-0"
         width="144.80162"
         height="144.80162"
         x="27.599195"
         y="27.599195"
         ry="30.226397"
         inkscape:label="rounded" /><path
         style="fill:#4c4334;fill-opacity:1;stroke:none;stroke-width:6.74801;stroke-dasharray:none;stroke-opacity:1"
         d="m 53.188867,169.36504 c -11.53808,-1.93851 -20.82969,-11.41565 -22.61789,-23.0695 -0.24859,-1.62013 -0.33126,-16.61252 -0.26325,-47.742191 0.0924,-42.303606 0.13972,-45.51624 0.69765,-47.384047 1.49467,-5.003826 3.35424,-8.47896 6.25986,-11.698287 3.34232,-3.703173 6.96422,-6.075784 11.91223,-7.803382 l 3.15199,-1.10052 h 47.573498 47.573485 l 2.51597,0.790069 c 9.48824,2.979511 16.4929,10.301868 18.90361,19.760993 0.66567,2.611941 0.68011,3.651121 0.6778,48.754394 -0.002,44.485981 -0.0251,46.180591 -0.65871,48.823111 -2.30305,9.60582 -9.47248,17.07419 -19.30339,20.10827 l -2.47268,0.76314 -46.05519,0.0535 c -26.608813,0.0309 -46.832023,-0.077 -47.894983,-0.25558 z"
         id="path11"
         inkscape:label="fill" /><path
         style="fill:#4c4334;fill-opacity:1;stroke:#4c4334;stroke-width:1.19289;stroke-dasharray:none;stroke-opacity:1"
         d="m 171.52403,42.549999 c -2.35386,-4.832461 -6.40277,-9.328582 -11.25014,-12.492744 -0.59048,-0.385441 -1.82512,-1.088991 -2.74365,-1.563443 l -1.67004,-0.862639 8.26077,-0.0034 8.26077,-0.0034 v 8.290596 c 0,4.559828 -0.0134,8.286739 -0.0298,8.282027 -0.0164,-0.0047 -0.38895,-0.745857 -0.82789,-1.646987 z"
         id="path7" /><path
         style="fill:#4c4334;fill-opacity:1;stroke:#4c4334;stroke-width:1.19289;stroke-dasharray:none;stroke-opacity:1"
         d="m 27.564727,35.931097 c 0,-6.493756 0.0318,-8.266728 0.14911,-8.311539 0.082,-0.03133 3.8262,-0.04306 8.32042,-0.02608 l 8.1713,0.03088 -1.05722,0.507934 c -6.39572,3.072758 -11.89051,8.551147 -14.97577,14.931074 -0.26496,0.547917 -0.51012,1.024584 -0.5448,1.059258 -0.0347,0.03468 -0.063,-3.651515 -0.063,-8.191532 z"
         id="path8" /><path
         style="fill:#4c4334;fill-opacity:1;stroke:#4c4334;stroke-width:1.19289;stroke-dasharray:none;stroke-opacity:1"
         d="m 27.567407,164.06133 0.003,-8.32042 0.93568,1.80748 c 3.22219,6.22439 7.98323,10.94455 14.20499,14.08304 l 1.48744,0.75031 h -8.31674 -8.31674 z"
         id="path9" /><path
         style="fill:#4c4334;fill-opacity:1;stroke:#4c4334;stroke-width:1.19289;stroke-dasharray:none;stroke-opacity:1"
         d="m 157.5505,171.49075 c 5.98614,-3.05666 10.95662,-8.037 13.97472,-14.00244 l 0.85652,-1.69295 v 8.29319 8.29319 h -8.28808 -8.28808 z"
         id="path10" /></g></g></svg>
